<svg xmlns="http://www.w3.org/2000/svg" xmlns:xlink="http://www.w3.org/1999/xlink" width="100%" height="100%" version="1.1" viewBox="117.6 162.4 464.8 364">
 
 <g>
  <path d="m337.12 383.6c-2.2383 0-4.4805-1.1211-6.1602-2.2383l-38.078-38.078c-3.3594-3.3594-3.3594-8.3984 0-11.762 3.3594-3.3594 8.3984-3.3594 11.762 0l29.121 29.121 50.961-122.64c1.6797-4.4805 6.7188-6.1602 11.199-4.4805 4.4805 1.6797 6.1602 6.7188 4.4805 11.199l-55.441 134.4c-1.1211 2.8008-3.3594 4.4805-6.1602 5.0391-0.56641-0.55859-1.125-0.55859-1.6836-0.55859z" fill="#FFF"/>
  <path d="m551.6 162.4h-403.2c-16.801 0-30.801 14-30.801 30.801v257.6c0 16.801 14 30.801 30.801 30.801h164.64c-1.6797 12.879-6.7188 28-24.641 28h-22.398c-4.4805 0-8.3984 3.9219-8.3984 8.3984 0 4.4805 3.918 8.3984 8.3984 8.3984h168c4.4805 0 8.3984-3.9219 8.3984-8.3984 0-4.4805-3.918-8.3984-8.3984-8.3984h-22.398c-17.922 0-23.52-15.121-24.641-28h164.64c16.801 0 30.801-14 30.801-30.801v-257.6c-0.003906-16.801-14.004-30.801-30.801-30.801zm-403.2 16.801h403.2c7.8398 0 14 6.1602 14 14l0.003906 232.4h-431.2l-0.003906-232.4c0-7.8398 6.1602-14 14-14zm230.72 330.4h-58.242c5.0391-7.2812 7.8398-16.801 8.9609-28h40.32c1.1211 11.199 3.918 20.719 8.9609 28zm172.48-44.801h-403.2c-7.8398 0-14-6.1602-14-14v-8.4023h431.2v8.3984c0.003906 7.8438-6.1562 14.004-13.996 14.004z" fill="#FFF"/>
 </g>
</svg>