<?xml version="1.0" encoding="UTF-8"?>
<svg xmlns="http://www.w3.org/2000/svg" width="100%" height="100%" xmlns:xlink="http://www.w3.org/1999/xlink" version="1.1" viewBox="96.75 41.41 506.41 477.14">
<g> 
    <path fill="#B21599" d="m573.88 202.9h-64.727c-0.23438-0.70703-0.41406-1.4141-0.70703-2.1211l-63.074-147.14c-4.3047-10.199-16.152-14.973-26.469-10.609l-18.156 7.7812c-10.141 4.3633-14.855 16.211-10.551 26.41l53.879 125.62h-172.07l53.879-125.62c4.3633-10.199-0.41406-22.047-10.551-26.41l-18.215-7.7812c-10.258-4.3047-22.047 0.47266-26.348 10.609l-63.137 147.13c-0.29297 0.70703-0.53125 1.4141-0.70703 2.1211l-80.816 0.003907c-16.152 0-29.355 13.145-29.355 29.297v34.602c0 16.152 13.145 29.297 29.355 29.297h1.0039l68.32 193.17c6.3086 17.801 23.461 29.297 43.738 29.297h221.52c20.277 0 37.492-11.496 43.738-29.297l68.379-193.17h1.0039c16.152 0 29.355-13.145 29.355-29.297v-34.602c0.058593-16.148-13.086-29.293-29.297-29.293zm-169.12-131.87c-0.94141-2.1797 0.11719-4.7734 2.2383-5.6602l18.098-7.7812c2.1797-0.94141 4.7734 0.058594 5.7188 2.3008l61.363 143.01h-30.828zm-119.43-11.199c0.94141-2.1797 3.4766-3.1836 5.6602-2.3008l18.098 7.7812c2.1797 0.94141 3.1836 3.4766 2.3008 5.6602l-56.531 131.87h-30.828zm204.25 424.18c-4.0078 11.375-15.328 18.746-28.824 18.746h-221.52c-13.5 0-24.816-7.3672-28.824-18.746l-66.492-187.86h412.22zm97.797-217.22c0 7.4258-6.0703 13.5-13.5 13.5l-447.77-0.003906c-7.4258 0-13.5-6.0703-13.5-13.5v-34.602c0-7.4258 6.0703-13.5 13.5-13.5h447.82c7.4258 0 13.5 6.0703 13.5 13.5v34.605zm-320.44 189.69h1.9453c12.203 0 22.105-9.9609 22.105-22.164v-69.793c0-12.145-9.9023-22.047-22.105-22.047h-1.9453c-12.203 0-22.105 9.9023-22.105 22.047v69.793c0.003906 12.203 9.9062 22.164 22.105 22.164zm-6.2461-91.957c0-3.418 2.8281-6.25 6.3086-6.25h1.9453c3.4766 0 6.3086 2.8281 6.3086 6.25v69.793c0 3.418-2.8867 6.3086-6.3086 6.3086h-1.9453c-3.418 0-6.3086-2.8867-6.3086-6.3086zm88.363 91.957h1.9453c12.203 0 22.105-9.9609 22.105-22.164l-0.003906-69.793c0-12.145-9.9023-22.047-22.105-22.047h-1.9453c-12.203 0-22.105 9.9023-22.105 22.047v69.793c-0.054688 12.203 9.9062 22.164 22.109 22.164zm-6.3086-91.957c0-3.418 2.8281-6.25 6.3086-6.25h1.9453c3.4766 0 6.3086 2.8281 6.3086 6.25v69.793c0 3.418-2.8867 6.3086-6.3086 6.3086h-1.9453c-3.418 0-6.3086-2.8867-6.3086-6.3086zm88.363 91.957h1.9453c12.203 0 22.105-9.9609 22.105-22.164l-0.003906-69.793c0-12.145-9.9023-22.047-22.105-22.047h-1.9453c-12.203 0-22.105 9.9023-22.105 22.047v69.793c-0.054687 12.203 9.9062 22.164 22.109 22.164zm-6.3086-91.957c0-3.418 2.8281-6.25 6.3086-6.25h1.9453c3.4766 0 6.3086 2.8281 6.3086 6.25v69.793c0 3.418-2.8867 6.3086-6.3086 6.3086h-1.9453c-3.418 0-6.3086-2.8867-6.3086-6.3086z"></path>
</g></svg>
