<svg xmlns="http://www.w3.org/2000/svg" xmlns:xlink="http://www.w3.org/1999/xlink" width="100%" height="100%" version="1.1" viewBox="108.64 82.32 483.17 394.8">
 
 <g>
  <path fill="#FDC90E" d="m515.2 120.96c-35.281-35.281-100.8-31.359-166.88 9.5195-5.0391 3.3594-6.7188 10.078-3.9219 15.68 3.3594 5.0391 10.078 6.7188 15.68 3.9219 56-34.719 112.56-39.762 139.44-12.879 37.52 37.52 11.762 125.44-55.441 192.64-67.199 67.199-155.68 92.398-192.64 55.441-10.641-10.641-16.238-25.199-17.359-43.121-0.55859-6.1602-5.6016-10.641-11.762-10.641-6.1602 0.55859-11.199 5.6016-10.641 11.762 1.1211 23.52 9.5195 43.68 24.078 57.68l52.078 52.078c16.238 16.238 38.641 24.078 64.398 24.078 48.719 0 108.64-28 160.16-79.52 78.398-78.398 102.48-176.96 55.441-224.56zm36.402 68.32c10.078 10.078 15.121 23.52 16.801 38.641l-29.68-29.68c0.55859-7.2812 0.55859-14.559 0-21.84zm-14 141.12-35.84-35.84c5.0391-7.8398 10.078-16.238 14-24.078l35.281 35.281c-3.9219 8.3984-8.4023 16.797-13.441 24.637zm-33.602 43.68-36.398-36.398c7.2812-7.8398 14.559-16.238 20.719-24.641l36.398 36.398c-6.1602 8.4023-13.438 16.801-20.719 24.641zm-39.762 35.844-36.398-36.398c7.8398-6.1602 16.238-12.879 24.078-20.16l36.398 36.398c-7.8359 7.2773-16.238 14-24.078 20.16zm-43.68 26.879-35.281-35.281c7.8398-4.4805 16.238-8.9609 24.078-14l35.84 35.84c-8.3945 5.0391-16.234 9.5195-24.637 13.441zm-47.039 15.68-33.039-33.039c7.8398-2.2383 15.68-5.0391 23.52-7.8398l34.719 34.719c-8.957 2.8008-17.359 5.0391-25.199 6.1602zm152.32-203.84c3.3594-7.8398 5.6016-15.68 7.8398-23.52l33.039 33.039c-1.6797 7.8398-3.3594 16.238-6.7188 24.641zm-226.24 176.4c4.4805 0 8.9609-0.55859 14-0.55859l30.238 30.238c-16.238-1.1211-29.68-6.7188-39.762-16.801l-12.879-12.879h8.4023z"/>
  <path fill="#FDC90E" d="m185.36 302.4c0 6.1602 5.0391 11.199 11.199 11.199h54.32c6.1602 0 11.199-5.0391 11.199-11.199v-66.078h66.078c6.1602 0 11.199-5.0391 11.199-11.199v-54.32c0-6.1602-5.0391-11.199-11.199-11.199h-66.078v-66.082c0-6.1602-5.0391-11.199-11.199-11.199h-54.32c-6.1602 0-11.199 5.0391-11.199 11.199v66.078l-65.52 0.003906c-6.1602 0-11.199 5.0391-11.199 11.199v54.32c0 6.1602 5.0391 11.199 11.199 11.199h66.078l0.003906 66.078zm-54.32-88.477v-31.922h66.078c6.1602 0 11.199-5.0391 11.199-11.199l0.003906-66.082h31.922v66.078c0 6.1602 5.0391 11.199 11.199 11.199h66.078v31.922l-66.641 0.003906c-6.1602 0-11.199 5.0391-11.199 11.199v66.078h-31.922l0.003907-66.078c0-6.1602-5.0391-11.199-11.199-11.199z"/>
    
 </g>
</svg>