<?xml version="1.0" encoding="UTF-8"?>
<svg width="752pt" height="752pt" version="1.1" viewBox="0 0 752 752" xmlns="http://www.w3.org/2000/svg">
 <defs>
  <clipPath id="a">
   <path d="m139.21 139.21h473.58v473.58h-473.58z"/>
  </clipPath>
 </defs>
 <path d="m396.89 276.73v78.367h78.379c2.875 0 5.2188 2.3438 5.2188 5.2188v31.348c0 2.875-2.3438 5.2188-5.2188 5.2188h-78.379v78.379c0 2.875-2.3438 5.2188-5.2188 5.2188h-31.348c-2.875 0-5.2188-2.3438-5.2188-5.2188v-78.379h-78.367c-2.875 0-5.2188-2.3438-5.2188-5.2188v-31.348c0-2.875 2.3438-5.2188 5.2188-5.2188h78.367v-78.367c0-2.875 2.3438-5.2188 5.2188-5.2188h31.348c2.875 0 5.2188 2.3438 5.2188 5.2188z" fill="#ced4d9"/>
 <g clip-path="url(#a)">
  <path d="m376 139.21c130.77 0 236.79 106.02 236.79 236.79s-106.02 236.79-236.79 236.79-236.79-106.02-236.79-236.79 106.02-236.79 236.79-236.79zm0 24.684c-117.14 0-212.11 94.965-212.11 212.11 0 117.14 94.965 212.11 212.11 212.11s212.11-94.965 212.11-212.11c0-117.14-94.965-212.11-212.11-212.11z" fill="#ced4d9"/>
 </g>
</svg>
