<?xml version="1.0" encoding="UTF-8"?>
<svg width="100%" height="100%" xmlns="http://www.w3.org/2000/svg" xmlns:xlink="http://www.w3.org/1999/xlink" version="1.1" viewBox="69.93 44.85 560.17 470.35"> <g>  <path fill="#FFF" d="m227.7 199.02 67.648 67.648c1.625 1.625 3.7539 2.4648 5.8789 2.4648 2.1289 0 4.2578-0.83984 5.8789-2.4648l125.78-125.78c3.2461-3.2461 3.2461-8.5117 0-11.762l-21.84-21.84c-3.2461-3.2461-8.5117-3.2461-11.762 0l-98 98-39.871-39.871c-1.5664-1.5664-3.6953-2.4648-5.8789-2.4648s-4.3125 0.89453-5.8789 2.4648l-21.84 21.895c-3.3594 3.1953-3.3594 8.4609-0.11328 11.707zm27.719-15.961 39.871 39.871c3.2461 3.2461 8.5117 3.2461 11.762 0l98-98 10.078 10.078-113.9 113.96-55.832-55.832z"></path>  <path fill="#FFF" d="m630 357.05c0-12.488-1.5117-24.695-4.1992-36.398-0.054687-0.39062-0.16797-0.83984-0.28125-1.2305-16.91-70.449-79.855-123.14-155.18-124.32 0.50391-4.7031 0.78516-9.5195 0.78516-14.391 0-74.93-60.93-135.86-135.86-135.86-47.879 0-90.047 24.922-114.24 62.496l-142.75-0.003907c-4.5938 0-8.3438 3.7539-8.3438 8.3438v241.59c0 4.5938 3.7539 8.3438 8.3438 8.3438h18.93v74.816c0 4.5938 3.7539 8.3438 8.3438 8.3438h53.871c-0.11328 1.3438-0.16797 2.6875-0.16797 4.0898 0 34.328 27.945 62.328 62.328 62.328s62.328-27.945 62.328-62.328c0-1.3438-0.054687-2.7422-0.16797-4.0898h145.15c-0.11328 1.3438-0.16797 2.6875-0.16797 4.0898 0 34.328 27.945 62.328 62.328 62.328 34.328 0 62.328-27.945 62.328-62.328 0-1.3438-0.054687-2.7422-0.16797-4.0898h68.543c4.5938 0 8.3438-3.7539 8.3438-8.3438v-83.16c-0.058593-0.11328-0.11328-0.16797-0.11328-0.22656zm-23.352-43.512h-116.2v-100.02c54.934 8.5703 99.789 48.047 116.2 100.02zm-138.77-101.81c2.0156 0 3.9766 0.054687 5.9375 0.16797v110.04c0 4.5938 3.7539 8.3438 8.3438 8.3438h128.69c1.1758 6.1055 1.9609 12.32 2.2969 18.703l-177.91 0.003907v-76.328c15.566-16.91 26.879-37.801 32.312-60.93zm-132.61-150.19c65.742 0 119.17 53.48 119.17 119.17s-53.48 119.17-119.17 119.17-119.17-53.48-119.17-119.17 53.48-119.17 119.17-119.17zm-248.64 62.555h125.27c-7.9531 17.246-12.434 36.457-12.434 56.672 0 74.93 60.93 135.86 135.86 135.86 31.359 0 60.258-10.695 83.273-28.617v60.93h-313.04-0.11328-18.812zm134.96 374.36c-25.145 0-45.641-20.496-45.641-45.641 0-25.145 20.496-45.641 45.641-45.641s45.641 20.496 45.641 45.641c-0.003906 25.145-20.5 45.641-45.641 45.641zm269.47 0c-25.145 0-45.641-20.496-45.641-45.641 0-25.145 20.496-45.641 45.641-45.641s45.641 20.496 45.641 45.641c-0.054687 25.145-20.496 45.641-45.641 45.641zm58.746-66.418c-8.5664-24.191-31.641-41.551-58.742-41.551-27.105 0-50.176 17.359-58.742 41.551h-151.99c-8.5664-24.191-31.641-41.551-58.742-41.551-27.105 0-50.176 17.359-58.742 41.551h-48.949v-66.414h499.52v66.473h-63.613z"></path>  <path fill="#FFF" d="m221.59 427.11c-14.168 0-25.703 11.535-25.703 25.703 0 14.168 11.535 25.703 25.703 25.703s25.703-11.535 25.703-25.703c0-14.168-11.535-25.703-25.703-25.703zm0 34.719c-4.9844 0-9.0156-4.0312-9.0156-9.0156s4.0312-9.0156 9.0156-9.0156 9.0156 4.0312 9.0156 9.0156-4.0352 9.0156-9.0156 9.0156z"></path>  <path fill="#FFF" d="m491.06 427.11c-14.168 0-25.703 11.535-25.703 25.703 0 14.168 11.535 25.703 25.703 25.703s25.703-11.535 25.703-25.703c0.003906-14.168-11.535-25.703-25.703-25.703zm0 34.719c-4.9844 0-9.0156-4.0312-9.0156-9.0156s4.0312-9.0156 9.0156-9.0156 9.0156 4.0312 9.0156 9.0156-4.0859 9.0156-9.0156 9.0156z"></path> </g></svg>