<svg xmlns="http://www.w3.org/2000/svg" xmlns:xlink="http://www.w3.org/1999/xlink" version="1.1" viewBox="109.93 113.42 480.14 333.17">
<g> 
    <path fill="#06BAA2" d="m590.06 269.6-70.801-118.5h-115.98v-37.68h-293.35v291.9h57.422c5.4219 23.602 26.645 41.273 51.984 41.273 25.336 0 46.559-17.676 51.984-41.273h161.81c5.4219 23.602 26.645 41.273 51.984 41.273 25.336 0 46.559-17.676 51.984-41.273h52.973l-0.007813-135.71zm-370.72 153.33c-16.32 0-29.594-13.211-29.594-29.445s13.273-29.445 29.594-29.445 29.594 13.207 29.594 29.445c0 16.234-13.281 29.445-29.594 29.445zm160.17-41.266h-108.14c-0.22266-0.96484-0.51562-1.9102-0.78906-2.8555-0.125-0.42188-0.21875-0.86328-0.35547-1.2812-0.49219-1.5469-1.0508-3.0742-1.6797-4.5586-0.14453-0.33203-0.3125-0.64453-0.45703-0.97656-0.51562-1.1484-1.0508-2.2812-1.6406-3.3867-0.26953-0.50391-0.56641-0.98438-0.85156-1.4727-0.51953-0.90234-1.0586-1.8008-1.6289-2.668-0.34375-0.51562-0.69531-1.0156-1.0586-1.5273-0.57812-0.81641-1.1758-1.6133-1.8008-2.3945-0.38672-0.48438-0.77734-0.96484-1.1836-1.4414-0.66406-0.77734-1.3555-1.5195-2.0625-2.2578-0.40625-0.42188-0.80469-0.85156-1.2227-1.2617-0.81641-0.79297-1.668-1.5469-2.5391-2.293-0.34766-0.30469-0.67969-0.61719-1.0391-0.91016-1.2461-1.0117-2.5273-1.9766-3.8633-2.875-0.17188-0.11328-0.35547-0.21094-0.53125-0.32422-1.1641-0.76563-2.3594-1.4922-3.5898-2.1719-0.47266-0.26172-0.97266-0.49219-1.457-0.73828-0.95312-0.49219-1.9219-0.96094-2.9102-1.3945-0.57031-0.25-1.1484-0.47266-1.7266-0.70312-0.94922-0.37891-1.9023-0.72656-2.875-1.0469-0.61328-0.19922-1.2227-0.39453-1.8477-0.57812-0.98828-0.28516-1.9883-0.53906-3-0.76953-0.61719-0.14453-1.2305-0.28516-1.8516-0.40625-1.1016-0.21094-2.2305-0.37109-3.3555-0.50781-0.54297-0.070312-1.0781-0.16016-1.6289-0.21094-1.6797-0.16016-3.3828-0.25781-5.1094-0.25781-1.7266 0-3.4219 0.097657-5.1094 0.25781-0.54688 0.050781-1.0859 0.14453-1.6289 0.21094-1.125 0.14453-2.25 0.29688-3.3555 0.50781-0.62109 0.12109-1.2344 0.26953-1.8516 0.40625-1.0117 0.23047-2.0117 0.48047-3 0.76953-0.62109 0.18359-1.2344 0.37109-1.8477 0.57812-0.97266 0.32031-1.9258 0.67578-2.875 1.0469-0.57813 0.23047-1.1602 0.45703-1.7266 0.70312-0.98828 0.43359-1.9492 0.91016-2.9102 1.3945-0.48438 0.24609-0.97656 0.48047-1.457 0.73828-1.2305 0.67578-2.4219 1.4062-3.5898 2.1719-0.17188 0.11328-0.35938 0.21094-0.53125 0.32422-1.332 0.89844-2.6172 1.8633-3.8633 2.875-0.35937 0.29297-0.69141 0.61328-1.0391 0.91016-0.86719 0.74219-1.7188 1.4961-2.5391 2.293-0.41797 0.41016-0.81641 0.83984-1.2227 1.2617-0.70703 0.73828-1.3984 1.4805-2.0625 2.2578-0.40625 0.47266-0.79297 0.95313-1.1836 1.4414-0.62109 0.78125-1.2227 1.5781-1.8008 2.3945-0.35938 0.50391-0.71484 1.0039-1.0586 1.5273-0.57031 0.86719-1.1094 1.7656-1.6289 2.668-0.28516 0.49219-0.58203 0.97656-0.85156 1.4727-0.58984 1.1016-1.125 2.2383-1.6406 3.3867-0.14844 0.33203-0.32031 0.64453-0.45703 0.97656-0.62891 1.4844-1.1875 3.0039-1.6797 4.5586-0.13281 0.42188-0.23047 0.85547-0.35547 1.2812-0.27344 0.94922-0.56641 1.8867-0.78906 2.8555h-33.613l0.03125-244.59h245.81v244.59zm177.41-121.25h-104.75v-43.93h78.504zm-71.816 162.51c-16.32 0-29.594-13.211-29.594-29.445s13.273-29.445 29.594-29.445 29.594 13.207 29.594 29.445c0 16.234-13.273 29.445-29.594 29.445zm52.027-41.266c-0.22266-0.96484-0.51562-1.9102-0.78906-2.8555-0.125-0.42188-0.21875-0.86328-0.35547-1.2812-0.49219-1.5469-1.0508-3.0742-1.6797-4.5586-0.14453-0.33203-0.30859-0.64453-0.45703-0.97656-0.51562-1.1484-1.0508-2.2812-1.6406-3.3867-0.26953-0.50391-0.56641-0.98438-0.85156-1.4727-0.51953-0.90234-1.0586-1.8008-1.6289-2.668-0.34375-0.51562-0.69531-1.0156-1.0586-1.5273-0.57812-0.81641-1.1758-1.6133-1.8008-2.3945-0.38672-0.48438-0.77734-0.96484-1.1836-1.4414-0.66406-0.77734-1.3555-1.5273-2.0625-2.2578-0.40625-0.42188-0.80469-0.85156-1.2227-1.2578-0.81641-0.79297-1.668-1.5469-2.5391-2.293-0.34766-0.30469-0.6875-0.61719-1.0391-0.91016-1.2461-1.0117-2.5273-1.9766-3.8633-2.875-0.17188-0.11328-0.35547-0.21094-0.52734-0.32422-1.1641-0.76562-2.3594-1.4961-3.5898-2.1719-0.47266-0.26172-0.96484-0.49219-1.4453-0.73828-0.96094-0.49219-1.9219-0.96484-2.9141-1.3984-0.57031-0.25-1.1484-0.47266-1.7266-0.70312-0.94141-0.37891-1.9023-0.72656-2.875-1.0469-0.61328-0.19922-1.2227-0.39453-1.8477-0.57812-0.98828-0.28516-1.9883-0.53906-3-0.76953-0.61719-0.14453-1.2305-0.28516-1.8516-0.40625-1.1094-0.21094-2.2305-0.37109-3.3594-0.51562-0.54297-0.070313-1.0781-0.16016-1.6289-0.21094-1.6875-0.16016-3.3828-0.25781-5.1094-0.25781-1.7266 0-3.4219 0.097656-5.1094 0.25781-0.54688 0.050781-1.0859 0.14453-1.6289 0.21094-1.125 0.14453-2.25 0.29688-3.3555 0.50781-0.62109 0.12109-1.2344 0.26953-1.8516 0.40625-1.0117 0.23047-2.0117 0.48047-3 0.76953-0.62109 0.18359-1.2344 0.37109-1.8477 0.57813-0.97266 0.32031-1.9258 0.67578-2.875 1.0469-0.57812 0.23047-1.1602 0.45703-1.7266 0.70313-0.98828 0.43359-1.9492 0.91016-2.9102 1.3945-0.48438 0.24609-0.97656 0.48047-1.457 0.73828-1.2305 0.67578-2.4219 1.4062-3.5898 2.1719-0.17188 0.11328-0.35938 0.21094-0.53125 0.32422-1.332 0.89844-2.6172 1.8633-3.8633 2.875-0.35938 0.29297-0.69141 0.61328-1.0391 0.91016-0.86719 0.74219-1.7188 1.4961-2.5391 2.293-0.41797 0.41016-0.81641 0.83984-1.2227 1.2617-0.70703 0.73828-1.3984 1.4805-2.0625 2.2578-0.40625 0.47266-0.79297 0.95312-1.1836 1.4414-0.62109 0.78125-1.2227 1.5781-1.8008 2.3945-0.35938 0.50391-0.71484 1.0039-1.0586 1.5273-0.57031 0.86719-1.1094 1.7656-1.6289 2.668-0.28516 0.49219-0.58203 0.97656-0.85156 1.4727-0.58984 1.1016-1.125 2.2383-1.6406 3.3867-0.14844 0.33203-0.32031 0.64453-0.45703 0.97656-0.62891 1.4844-1.1875 3.0039-1.6797 4.5586-0.13281 0.42188-0.23047 0.85547-0.35547 1.2812-0.27344 0.94922-0.56641 1.8867-0.78906 2.8555h-29.152v-206.91h101.81l10.805 18.09-76.207 0.003907c-6.5664 0-11.887 5.293-11.887 11.824v67.582c0 6.5312 5.3203 11.824 11.887 11.824h126v44.676h-20.199c-6.5664 0-11.887 5.293-11.887 11.824s5.3203 11.824 11.887 11.824h20.199v29.262l-29.16-0.007813zm-352.11-199.27c0-6.5312 5.3203-11.824 11.887-11.824h119.41c6.5664 0 11.887 5.293 11.887 11.824s-5.3203 11.824-11.887 11.824h-119.41c-6.5664 0.003906-11.887-5.2891-11.887-11.824zm47.457 35.453h119.41c6.5664 0 11.887 5.293 11.887 11.824s-5.3203 11.824-11.887 11.824l-119.41-0.003906c-6.5664 0-11.887-5.293-11.887-11.824s5.3203-11.82 11.887-11.82zm106.9 59.09c0 6.5312-5.3203 11.824-11.887 11.824h-119.41c-6.5664 0-11.887-5.293-11.887-11.824s5.3203-11.824 11.887-11.824h119.41c6.5664-0.003906 11.887 5.293 11.887 11.824z"></path>
</g></svg>