<?xml version="1.0" encoding="UTF-8"?>
<svg xmlns="http://www.w3.org/2000/svg" xmlns:xlink="http://www.w3.org/1999/xlink" version="1.1" viewBox="100.8 37.33 498.4 485.33" width="100%" height="100%"> <g>
<path fill="#A10002" d="m590.8 505.86h-21.605v-260.62c11.387-5.9258 20.379-15.602 25.445-27.395 5.0703-11.793 5.9062-24.977 2.3711-37.312l-35.789-124.73c-1.5391-5.3125-4.7578-9.9844-9.1758-13.316s-9.793-5.1406-15.324-5.1602h-373.52c-5.5312 0.019532-10.906 1.8281-15.324 5.1602s-7.6367 8.0039-9.1758 13.316l-35.715 124.75c-3.5352 12.34-2.6953 25.523 2.3789 37.312 5.0781 11.793 14.07 21.465 25.465 27.379v260.62h-21.629c-4.6367 0-8.3984 3.7578-8.3984 8.3984s3.7617 8.3984 8.3984 8.3984h481.6c4.6367 0 8.3984-3.7578 8.3984-8.3984s-3.7617-8.3984-8.3984-8.3984zm-253.02-211.78h214.61v146.46h-214.61zm207.29-233.64 35.797 124.72c2.8438 10.223 1.3828 21.16-4.043 30.277-5.4297 9.1172-14.352 15.613-24.695 17.98-10.344 2.3672-21.203 0.39453-30.055-5.4531-8.8555-5.8477-14.926-15.062-16.809-25.504l-19.465-113.18-6.0547-35.125h56.977c3.8672 0.015625 7.2656 2.5742 8.3477 6.2891zm-82.371-6.2891 23.281 135.14c1.9414 11.281-1.1914 22.844-8.5664 31.602-7.375 8.7539-18.242 13.809-29.688 13.809h-1.8867c-9.9102-0.007812-19.445-3.8008-26.648-10.605-7.207-6.8047-11.539-16.105-12.109-25.996l-0.30859-5.3594v-0.035157l-4.9023-85.734-3.0195-52.797zm-83.23 168.37c-7.3086 7.8047-17.535 12.211-28.227 12.168h-2.4648c-10.68 0-20.887-4.4023-28.219-12.164-7.3359-7.7656-11.145-18.207-10.535-28.871l3.6406-63.684 4.3359-75.82h64.027l7.9727 139.54v0.003906c0.64453 10.656-3.1719 21.098-10.531 28.828zm-86.527-24.434c-0.57031 9.8945-4.9023 19.195-12.105 26-7.2031 6.8047-16.738 10.598-26.645 10.602h-1.8945c-11.445 0-22.309-5.0508-29.684-13.805s-10.512-20.316-8.5703-31.598l7.3477-42.648 15.934-92.488h63.84zm-167.5 21.148c-7.3789-9.7148-9.7227-22.348-6.3164-34.062l35.746-124.73h-0.003906c1.082-3.7148 4.4805-6.2734 8.3516-6.2891h57.059l-15.316 89.031-10.23 59.277c-1.7227 10.012-7.3008 18.953-15.539 24.902-8.2383 5.9492-18.48 8.4297-28.527 6.918-10.047-1.5156-19.102-6.9102-25.219-15.023zm59.016 74.844h101.51v211.78h-101.51zm118.31 211.78v-220.18c0-4.6367-3.7617-8.3984-8.3984-8.3984h-118.31c-4.6406 0-8.3984 3.7617-8.3984 8.3984v220.18h-20.031v-255.15c2.9219 0.49219 5.8789 0.75 8.8398 0.77734 19.73 0.035156 37.996-10.414 47.969-27.441 4.8398 8.3984 11.82 15.359 20.227 20.18 8.4062 4.8203 17.941 7.3281 27.633 7.2617h1.8945c19.254-0.015625 37.129-9.9883 47.258-26.363 1.9883 3.2109 4.3008 6.2148 6.8984 8.957 10.469 11.18 25.117 17.496 40.43 17.434h2.4648c15.316 0.0625 29.969-6.2539 40.438-17.434 2.5938-2.7461 4.9062-5.75 6.8984-8.957 10.125 16.383 28.004 26.359 47.262 26.375h1.8867c9.6953 0.070312 19.234-2.4336 27.645-7.2578s15.391-11.793 20.23-20.195c9.9727 17.027 28.238 27.477 47.969 27.441 2.9609-0.027344 5.918-0.28516 8.8398-0.77734v26.566h-223.02c-4.6406 0-8.3984 3.7617-8.3984 8.3984v163.26c0 4.6406 3.7578 8.4023 8.3984 8.4023h223.01v48.52z"></path>
<path fill="#A10002" d="m448.75 311.47c-4.1758-2.0039-9.1875-0.25-11.203 3.918l-46.664 96.535c-1.0898 2.0195-1.3086 4.3984-0.60156 6.582 0.70703 2.1875 2.2773 3.9844 4.3477 4.9805 2.0664 0.99609 4.457 1.1055 6.6055 0.29297 2.1484-0.80859 3.8711-2.4609 4.7695-4.5781l46.625-96.539v0.003907c2.0078-4.1641 0.27344-9.168-3.8789-11.195z"></path>
<path fill="#A10002" d="m484.63 340.43c-4.1758-2.0078-9.1836-0.25391-11.199 3.918l-22.707 47.008c-1.0938 2.0195-1.3125 4.3984-0.60547 6.582 0.70703 2.1875 2.2812 3.9844 4.3477 4.9805 2.0703 0.99609 4.457 1.1016 6.6055 0.29297 2.1484-0.80859 3.875-2.4609 4.7695-4.5781l22.707-47.012h0.003906c2-4.1719 0.24609-9.1797-3.9219-11.191z"></path>
<path fill="#A10002" d="m265.5 398.42h-18.586c-4.6367 0-8.3984 3.7617-8.3984 8.3984 0 4.6406 3.7617 8.4023 8.3984 8.4023h18.586c4.6406 0 8.4023-3.7617 8.4023-8.4023 0-4.6367-3.7617-8.3984-8.4023-8.3984z"></path> </g></svg>