<svg width="40" height="40" viewBox="0 0 40 40" fill="none" xmlns="http://www.w3.org/2000/svg">
<g clip-path="url(#clip0)">
<path d="M8.86484 24.1721L7.4725 29.3699L2.38352 29.4775C0.862656 26.6567 0 23.4293 0 19.9996C0 16.6831 0.806562 13.5556 2.23625 10.8018H2.23734L6.76797 11.6324L8.75265 16.1358C8.33726 17.3468 8.11086 18.6468 8.11086 19.9996C8.11101 21.4677 8.37695 22.8743 8.86484 24.1721Z" fill="#FBBB00"/>
<path d="M39.6518 16.2637C39.8815 17.4735 40.0012 18.723 40.0012 19.9999C40.0012 21.4318 39.8507 22.8285 39.5639 24.1758C38.5903 28.7604 36.0463 32.7637 32.5222 35.5966L32.5211 35.5955L26.8145 35.3044L26.0069 30.2626C28.3453 28.8912 30.1728 26.745 31.1354 24.1758H20.4409V16.2637H31.2915H39.6518Z" fill="#518EF8"/>
<path d="M32.5195 35.5964L32.5206 35.5975C29.0932 38.3524 24.7393 40.0008 19.9998 40.0008C12.3833 40.0008 5.76135 35.7436 2.3833 29.4788L8.86463 24.1733C10.5536 28.681 14.902 31.8898 19.9998 31.8898C22.191 31.8898 24.2438 31.2975 26.0052 30.2634L32.5195 35.5964Z" fill="#28B446"/>
<path d="M32.765 4.60438L26.2859 9.90875C24.4629 8.76922 22.3079 8.11094 19.9991 8.11094C14.7859 8.11094 10.3562 11.467 8.75184 16.1363L2.23645 10.8022H2.23535C5.56395 4.38461 12.2694 0 19.9991 0C24.8518 0 29.3013 1.72859 32.765 4.60438Z" fill="#F14336"/>
</g>
<defs>
<clipPath id="clip0">
<rect width="40" height="40" fill="white"/>
</clipPath>
</defs>
</svg>
