<?xml version="1.0" encoding="UTF-8"?>
<svg xmlns="http://www.w3.org/2000/svg" xmlns:xlink="http://www.w3.org/1999/xlink" version="1.1" viewBox="131.6 68.97 436.8 422.05" width="100%" height="100%"> <g> 
<path fill="#0587F1" d="m470.61 68.973c-29.93 0-57.75 13.457-76.336 36.809-20.645-7.1523-42.363-10.816-64.672-10.816-109.18 0.003906-198 88.824-198 198.01 0 55.832 23.746 109.36 65.148 146.86 36.461 33.012 83.641 51.191 132.85 51.191 49.246 0 96.445-18.18 132.91-51.191 41.402-37.5 65.148-91.031 65.148-146.86 0-14.695-1.7305-29.297-4.9609-43.539 28.625-17.961 45.703-48.828 45.703-82.668 0-53.922-43.867-97.793-97.789-97.793zm-82.371 150.34c0.57422 0.90234 1.1328 1.8125 1.7383 2.6953 0.35547 1.0391 0.65625 2.0938 0.96484 3.1445 0.26172 0.88672 0.55078 1.7617 0.78125 2.6562 0.31641 1.2461 0.55469 2.5117 0.8125 3.7734 0.17188 0.85938 0.38281 1.707 0.52734 2.5703 0.23438 1.4141 0.38281 2.8477 0.54297 4.2773 0.082031 0.73047 0.20703 1.4531 0.26562 2.1914 0.17969 2.1758 0.27344 4.3672 0.27344 6.5703 0 5.6406-0.59375 11.258-1.7227 16.742-0.75 3.6562-1.7383 7.2539-2.9453 10.762-0.60156 1.7539-1.2617 3.4844-1.9688 5.1875-7.0938 17.039-19.395 31.379-34.555 38.945-3.7461 1.875-7.6055 3.2812-11.516 4.2148-9.7773 2.3359-19.887 1.7383-29.461-1.7656-1.9141-0.69922-3.8086-1.5195-5.6758-2.4492-24.254-12.125-41.191-41.586-41.191-71.637 0-39.363 28.953-71.387 64.543-71.387 2.4414 0 4.8594 0.15234 7.25 0.44922 0.80078 0.097656 1.5781 0.30469 2.3711 0.4375 1.5742 0.26172 3.1523 0.49609 4.6953 0.88281 0.95312 0.23828 1.8711 0.59375 2.8086 0.87891 1.3477 0.41016 2.7109 0.77734 4.0273 1.2812 0.98047 0.375 1.918 0.86719 2.8828 1.2969 1.2305 0.54688 2.4766 1.0508 3.6719 1.6836 0.96094 0.50391 1.8711 1.1211 2.8047 1.6797 1.1406 0.68359 2.3047 1.3242 3.4062 2.082 0.91406 0.62891 1.7734 1.3594 2.6602 2.0391 1.0625 0.81641 2.1406 1.5938 3.1602 2.4805 0.85547 0.74609 1.6484 1.5859 2.4727 2.3828 0.97656 0.94531 1.9727 1.8555 2.9023 2.8711 0.78125 0.85156 1.4961 1.793 2.2422 2.6953 0.80469 0.97266 1.625 1.9297 2.3906 2.957 0.39062 1.0156 0.82812 2.0117 1.2539 3.0117 0.25781 0.60938 0.49219 1.2227 0.76172 1.8281 0.79297 1.7695 1.6367 3.5195 2.5391 5.2422 0.058594 0.10938 0.10938 0.21875 0.16797 0.32812 0.92578 1.7578 1.9141 3.4883 2.9492 5.1914 0.375 0.60938 0.78125 1.2031 1.168 1.8086zm-58.637 254.92c-43.773 0-85.785-15.715-118.74-44.336 0.015625-0.44141 0.03125-0.88281 0.058594-1.3242 0.042969-0.66016 0.085937-1.3203 0.15625-1.9766 0.074219-0.70703 0.17578-1.4062 0.27734-2.1094 0.097657-0.65234 0.19531-1.3047 0.32031-1.9492 0.13281-0.69141 0.29297-1.3789 0.45703-2.0664 0.15234-0.63672 0.30469-1.2734 0.48047-1.9062 0.19141-0.68359 0.41406-1.3555 0.63281-2.0273 0.20312-0.62109 0.40625-1.2422 0.63281-1.8555 0.24609-0.66406 0.52344-1.3164 0.80078-1.9688 0.25391-0.60156 0.50391-1.207 0.78125-1.8008 0.30469-0.64844 0.63672-1.2852 0.96875-1.9258 0.30078-0.57812 0.59375-1.1562 0.91406-1.7227 0.35938-0.63281 0.75-1.25 1.1367-1.8711 0.34375-0.54688 0.67578-1.1016 1.0391-1.6367 0.41406-0.61328 0.85938-1.207 1.3008-1.8047 0.38281-0.51953 0.75781-1.0469 1.1602-1.5547 0.46875-0.58984 0.96875-1.1602 1.4609-1.7305 0.41797-0.48828 0.82812-0.98438 1.2656-1.457 0.51953-0.56641 1.0742-1.1055 1.6211-1.6523 0.45312-0.45312 0.89453-0.91797 1.3672-1.3594 0.57422-0.53906 1.1836-1.0508 1.7852-1.5664 0.48047-0.41406 0.94922-0.84375 1.4492-1.2461 0.63281-0.50781 1.2969-0.98828 1.9531-1.4727 0.50781-0.375 1-0.76562 1.5195-1.1289 0.69922-0.48438 1.4297-0.93359 2.1523-1.3945 0.51172-0.32422 1.0117-0.66797 1.5352-0.98047 0.78906-0.46875 1.6094-0.89453 2.4258-1.332 0.49609-0.26562 0.97656-0.55078 1.4844-0.80469 0.91797-0.46094 1.8711-0.875 2.8203-1.293 0.43359-0.19141 0.85156-0.40625 1.2891-0.58594 1.4023-0.58203 2.8359-1.1211 4.3008-1.6094l52.195-17.449c17.488 6.3945 36.43 6.4375 54.098-0.003906l52.152 17.453c1.4648 0.48828 2.8984 1.0273 4.3008 1.6094 0.4375 0.18359 0.85547 0.39453 1.2891 0.58594 0.94922 0.41797 1.9023 0.83203 2.8203 1.293 0.51172 0.25781 1 0.54688 1.5039 0.81641 0.80859 0.43359 1.6211 0.85547 2.4023 1.3164 0.52344 0.3125 1.0195 0.65234 1.5312 0.97656 0.72656 0.46094 1.4648 0.91406 2.1641 1.4023 0.50781 0.35156 0.98828 0.73438 1.4805 1.1016 0.66797 0.49609 1.3438 0.98047 1.9883 1.5 0.49219 0.39844 0.95703 0.82031 1.4336 1.2344 0.60547 0.51953 1.2188 1.0352 1.7969 1.5781 0.46875 0.44141 0.91016 0.90234 1.3633 1.3555 0.54688 0.54688 1.1016 1.0859 1.6211 1.6523 0.4375 0.47656 0.84766 0.97266 1.2695 1.4609 0.49219 0.57031 0.99219 1.1406 1.457 1.7305 0.40234 0.50781 0.77734 1.0352 1.1602 1.5586 0.4375 0.59766 0.88281 1.1875 1.2969 1.8008 0.36719 0.54297 0.70312 1.0977 1.0469 1.6484 0.38281 0.61719 0.77344 1.2305 1.1289 1.8594 0.32422 0.57031 0.62109 1.1562 0.92188 1.7344 0.32812 0.63281 0.66016 1.2656 0.96484 1.9102 0.27734 0.58984 0.52344 1.1953 0.77734 1.793 0.27734 0.65625 0.55469 1.3164 0.80469 1.9844 0.22656 0.60937 0.42578 1.2266 0.62891 1.8438 0.22266 0.67578 0.44141 1.3516 0.63672 2.0352 0.17578 0.62891 0.32812 1.2617 0.47656 1.8945 0.16406 0.69141 0.32812 1.3828 0.46094 2.0781 0.125 0.64453 0.22266 1.2891 0.32031 1.9414 0.10547 0.70312 0.20703 1.4062 0.28125 2.1133 0.070312 0.65625 0.11328 1.3164 0.15625 1.9766 0.027343 0.44141 0.042968 0.88281 0.058593 1.3242-32.953 28.621-74.988 44.34-118.79 44.34zm133.62-58.781c-0.007812-0.027343-0.019531-0.050781-0.027343-0.078124-0.66016-2.5508-1.5195-5.043-2.4766-7.4961-0.19531-0.5-0.38672-1-0.59375-1.4961-0.99609-2.3789-2.1094-4.707-3.3711-6.9648-0.20703-0.375-0.44141-0.73438-0.65625-1.1016-1.2305-2.1094-2.5664-4.1602-4.0195-6.1445-0.20312-0.27734-0.38281-0.5625-0.58984-0.83594-1.582-2.0977-3.3086-4.1016-5.1289-6.0352-0.38672-0.41016-0.77734-0.8125-1.1719-1.2148-1.8789-1.9062-3.8398-3.7422-5.9375-5.457-0.22266-0.18359-0.46484-0.34766-0.6875-0.52734-1.9922-1.5938-4.0898-3.0859-6.2617-4.4922-0.41797-0.26953-0.82031-0.55078-1.2461-0.81641-2.3125-1.4375-4.7266-2.7539-7.2227-3.9648-0.51953-0.25-1.0469-0.48437-1.5703-0.72656-2.6172-1.1992-5.293-2.3125-8.082-3.2461l-55.012-18.41c-1.9102-0.64453-3.9844-0.57422-5.8398 0.1875-15.465 6.3086-32.078 6.2656-47.328 0.007812-1.8672-0.76562-3.9414-0.83594-5.8516-0.19531l-55.066 18.406c-2.793 0.93359-5.4688 2.0469-8.0859 3.2461-0.52734 0.24219-1.0547 0.47656-1.5742 0.72656-2.4961 1.2109-4.9062 2.5273-7.2227 3.9609-0.42578 0.26562-0.83203 0.54688-1.25 0.82031-2.1719 1.4062-4.2656 2.8945-6.2578 4.4883-0.22656 0.17969-0.46484 0.34375-0.6875 0.52734-2.0977 1.7148-4.0586 3.5508-5.9375 5.457-0.39844 0.40234-0.78906 0.80469-1.1758 1.2188-1.8203 1.9336-3.543 3.9336-5.125 6.0312-0.20703 0.27734-0.39453 0.56641-0.59766 0.84375-1.4531 1.9805-2.7852 4.0312-4.0156 6.1406-0.21484 0.37109-0.44922 0.73047-0.65625 1.1055-1.2617 2.2578-2.3789 4.5859-3.3711 6.9648-0.20703 0.49609-0.39844 1-0.59766 1.5-0.95703 2.4531-1.8164 4.9414-2.4766 7.4922-0.007813 0.027343-0.019532 0.050781-0.027344 0.078124-30.445-33.273-47.629-77.043-47.629-122.47 0-99.918 81.289-181.2 181.2-181.2 18.945 0 37.414 2.8477 55.047 8.4727-0.39453 0.72656-0.74219 1.4766-1.1172 2.2109-0.35547 0.69531-0.71875 1.3867-1.0586 2.0898-0.74609 1.5508-1.4414 3.1211-2.1016 4.707-0.21484 0.51562-0.45312 1.0195-0.66016 1.5391-0.83594 2.1055-1.5977 4.2344-2.2852 6.3945-0.15234 0.48047-0.27344 0.96875-0.41797 1.4531-0.50781 1.6914-0.98047 3.3945-1.3945 5.1172-0.18359 0.75781-0.33984 1.5195-0.50391 2.2812-0.32031 1.4922-0.61328 2.9922-0.86328 4.5039-0.13281 0.80469-0.26172 1.6094-0.37891 2.4219-0.22266 1.5664-0.39453 3.1406-0.53906 4.7227-0.066406 0.72266-0.15234 1.4453-0.20312 2.1719-0.16016 2.293-0.26172 4.5938-0.26172 6.9141 0 1.9336 0.058594 3.8633 0.16797 5.7852-2.2461-1.543-4.5781-2.9141-6.9492-4.2031-0.52344-0.28516-1.043-0.57031-1.5703-0.83984-2.3867-1.2305-4.8203-2.3516-7.3125-3.3203-0.39062-0.15234-0.79297-0.27734-1.1875-0.42188-2.3086-0.85547-4.6562-1.5938-7.043-2.2188-0.44531-0.11719-0.88281-0.25391-1.332-0.36328-2.5977-0.63281-5.2383-1.1133-7.9062-1.4688-0.57812-0.078125-1.1562-0.13672-1.7383-0.19922-2.7578-0.30469-5.5352-0.51172-8.3477-0.51172-44.855 0-81.344 39.562-81.344 88.188 0 11.301 2.0273 22.555 5.7227 33.133 8.1289 23.277 24.324 43.316 44.758 53.531 0.49219 0.24609 1.0039 0.41406 1.5 0.64453 9.3906 4.4414 19.254 6.7656 29.367 6.7656 10.613 0 20.977-2.4922 30.805-7.4062 29.727-14.832 50.488-50.473 50.488-86.668 0-1.0156-0.015625-2.0312-0.046875-3.043 0.011719 0.007812 0.023438 0.015625 0.039063 0.027344 1.8984 1.4648 3.8633 2.832 5.8594 4.1523 0.54688 0.35938 1.1016 0.70312 1.6523 1.0547 1.5742 0.99609 3.1758 1.9414 4.8008 2.8438 0.53125 0.29297 1.0508 0.59766 1.5859 0.88281 2.0977 1.1133 4.2305 2.1641 6.4062 3.125 0.35156 0.15625 0.71094 0.28516 1.0664 0.4375 1.8555 0.79297 3.7383 1.5273 5.6445 2.2031 0.65625 0.23438 1.3125 0.45703 1.9727 0.67578 1.8711 0.62109 3.7578 1.1875 5.668 1.6953 0.43359 0.11719 0.86328 0.25 1.2969 0.35938 2.3086 0.58203 4.6445 1.0664 6.9961 1.4805 0.59375 0.10547 1.1914 0.17969 1.7891 0.27344 1.8477 0.28906 3.707 0.52344 5.582 0.70312 0.6875 0.066406 1.3711 0.13672 2.0586 0.1875 2.418 0.18359 4.8477 0.30469 7.293 0.30469 2.8047 0 5.6016-0.16797 8.3906-0.40625 0.64844-0.054688 1.293-0.11328 1.9414-0.18359 2.7422-0.29297 5.4727-0.67188 8.1719-1.1953 0.31641-0.0625 0.625-0.14453 0.94141-0.20703 2.4688-0.50391 4.9141-1.1133 7.3359-1.8047 0.59375-0.17188 1.1914-0.33203 1.7812-0.51172 2.6133-0.80078 5.1914-1.6953 7.7266-2.7148 0.13672-0.054687 0.28125-0.089844 0.42188-0.14844 2.3477 11.676 3.5352 23.609 3.5352 35.594 0.007813 45.422-17.176 89.191-47.625 122.46zm50.277-180.07c-1.418 0.87891-2.8789 1.7578-4.3711 2.5781-11.734 6.4062-25.055 9.793-38.523 9.793-26.238 0-50.965-12.828-66.133-34.32-2.8008-3.9688-5.1953-8.1641-7.2227-12.512-0.19531-0.42188-0.42188-0.83203-0.60938-1.2578-0.12109-0.27344-0.21875-0.55469-0.33594-0.83203-0.57422-1.3359-1.1367-2.6758-1.6367-4.0391-3.3203-9.0117-5-18.441-5-28.027 0-16.688 5.0117-32.648 14.57-46.262 0.875-1.2891 1.7891-2.5742 2.8828-3.918 15.461-19.582 38.602-30.812 63.488-30.812 44.656 0.003907 80.988 36.336 80.988 80.996 0 28.129-14.246 53.785-38.098 68.613z"></path>
<path fill="#0587F1" d="m470.67 142.38c-13.457 0-24.402 10.949-24.402 24.406 0 13.457 10.945 24.402 24.402 24.402 13.426 0 24.348-10.945 24.348-24.402 0-13.457-10.922-24.406-24.348-24.406zm0 32.008c-4.1914 0-7.6016-3.4102-7.6016-7.6016 0-4.1914 3.4102-7.6055 7.6016-7.6055 4.1602 0 7.5508 3.4141 7.5508 7.6055-0.003906 4.1914-3.3906 7.6016-7.5508 7.6016z"></path>
<path fill="#0587F1" d="m508.23 107.55c-3.3281-2.1289-7.6797-1.6562-10.469 1.1328l-2.3945 2.3945c-0.91797-0.40625-1.8477-0.79297-2.7852-1.1523v-3.3555c0-3.9297-2.7227-7.332-6.5586-8.1953-10.406-2.3398-21.328-2.2305-30.816 0.023437-3.7852 0.89844-6.457 4.2812-6.457 8.1719v3.3398c-0.95312 0.36328-1.9023 0.75391-2.8359 1.168l-2.3945-2.3945c-2.793-2.793-7.1523-3.2695-10.473-1.1289-8.6875 5.5664-16.172 13.074-21.645 21.711-2.1016 3.3203-1.625 7.6562 1.1562 10.434l2.3711 2.3711c-0.40625 0.92578-0.78906 1.8633-1.1523 2.8086h-3.332c-3.9297 0-7.332 2.7227-8.1953 6.5586-1.1406 5.0625-1.7188 10.23-1.7188 15.359 0 5.1289 0.57812 10.297 1.7188 15.359 0.86328 3.832 4.2656 6.5547 8.1953 6.5547h3.332c0.35938 0.93359 0.73828 1.8555 1.1406 2.7656l-2.3555 2.3555c-2.7734 2.7734-3.2578 7.0938-1.1719 10.414 5.4648 8.6836 12.984 16.207 21.75 21.762 3.3203 2.1094 7.6523 1.6211 10.434-1.1562l2.3398-2.3398c0.9375 0.41406 1.8828 0.80469 2.8359 1.1719v3.2852c0 3.8945 2.6758 7.2773 6.4609 8.1719 4.8672 1.1523 10.066 1.7383 15.453 1.7383 5.1289 0 10.297-0.57812 15.359-1.7188 3.832-0.86328 6.5586-4.2656 6.5586-8.1953v-3.3047c0.93359-0.35938 1.8633-0.74219 2.7852-1.1523l2.3359 2.3398c2.7695 2.7773 7.0938 3.2539 10.414 1.1719 8.7422-5.5 16.27-13.027 21.773-21.773 2.0898-3.3164 1.6016-7.6406-1.168-10.414l-2.3594-2.3555c0.40234-0.91016 0.78125-1.832 1.1406-2.7656h3.332c3.9297 0 7.332-2.7227 8.1953-6.5547 1.1406-5.0703 1.7188-10.238 1.7188-15.359 0-5.1211-0.57812-10.289-1.7188-15.359-0.86328-3.832-4.2656-6.5586-8.1953-6.5586h-3.332c-0.35937-0.94531-0.74609-1.8828-1.1523-2.8047l2.375-2.375c2.7773-2.7812 3.2578-7.1133 1.1523-10.434-5.4766-8.6445-12.965-16.148-21.648-21.715zm15.469 54.125c0.16797 1.7109 0.25 3.4141 0.25 5.1172 0 1.6992-0.085937 3.4062-0.25 5.1133h-2.2695c-3.7852 0-7.1016 2.5312-8.1016 6.1797-1.0625 3.8789-2.5664 7.5273-4.4766 10.844-1.8906 3.293-1.3438 7.4414 1.3398 10.129l1.6055 1.6016c-2.1758 2.6484-4.6172 5.082-7.2578 7.2578l-1.5977-1.6016c-2.6914-2.6953-6.8672-3.2422-10.16-1.3242-3.3867 1.9648-6.9961 3.4609-10.723 4.4336-3.6953 0.96875-6.2734 4.3086-6.2734 8.125v2.2656c-3.457 0.33594-6.9414 0.32031-10.23 0.015625v-2.2812c0-3.8281-2.5898-7.1719-6.293-8.1328-3.7422-0.96875-7.3594-2.457-10.75-4.4297-3.293-1.9141-7.4609-1.3711-10.156 1.3242l-1.5977 1.5938c-2.6523-2.1836-5.0898-4.6172-7.2617-7.25l1.5977-1.6016c2.6875-2.6836 3.2344-6.8398 1.3398-10.129-1.9102-3.3125-3.4141-6.9609-4.4766-10.844-1-3.6484-4.3164-6.1797-8.1016-6.1797h-2.2656c-0.16797-1.707-0.25-3.4141-0.25-5.1133 0-1.6992 0.085938-3.4102 0.25-5.1172h2.2656c3.7852 0 7.1016-2.5312 8.1016-6.1797 1.0586-3.8633 2.5742-7.543 4.5-10.941 1.8672-3.2852 1.3086-7.4141-1.3633-10.086l-1.5898-1.5898c2.1641-2.6211 4.5898-5.0508 7.2227-7.2383l1.625 1.625c2.6992 2.6914 6.8672 3.2422 10.156 1.3203 3.3867-1.9648 7.0039-3.457 10.75-4.4258 3.707-0.96094 6.293-4.3047 6.293-8.1328v-2.3398c3.2891-0.30859 6.7695-0.32422 10.23 0.015624v2.3281c0 3.8203 2.5742 7.1602 6.2734 8.125 3.7305 0.97656 7.3398 2.4688 10.723 4.4336 3.2891 1.918 7.4648 1.375 10.156-1.3242l1.625-1.6211c2.6289 2.1836 5.0547 4.6133 7.2227 7.2383l-1.5898 1.5898c-2.668 2.6719-3.2305 6.7969-1.3633 10.086 1.9297 3.4023 3.4414 7.082 4.5 10.941 1 3.6484 4.3164 6.1797 8.1016 6.1797z"></path> </g></svg>