<?xml version="1.0" encoding="UTF-8"?>
<svg xmlns="http://www.w3.org/2000/svg" xmlns:xlink="http://www.w3.org/1999/xlink" version="1.1" viewBox="129.17 5.72 441.76 548.57" width="100%" height="100%">  <g xmlns="http://www.w3.org/2000/svg">  <path fill="#FFF" d="m569.94 538.18-21.48-74.211-30.727-316.52c-0.56641-5.8555-5.4922-10.324-11.371-10.324h-60.922v-35.965c0-52.625-42.812-95.441-95.441-95.441-52.621 0-95.434 42.816-95.434 95.441v35.965h-60.926c-5.8789 0-10.812 4.4688-11.371 10.324l-30.73 316.53-21.914 75.707c-1 3.4531-0.32031 7.1719 1.8398 10.039 2.1562 2.8711 5.5391 4.5625 9.1289 4.5625h418.8c0.039062 0.003906 0.085937 0.003906 0.11328 0 6.3125 0 11.43-5.1211 11.43-11.43 0-1.668-0.35156-3.25-1-4.6797zm-292.52-437.02c0-40.02 32.555-72.582 72.578-72.582s72.582 32.559 72.582 72.582v35.965l-145.16 0.003906zm-73.41 58.824h50.555v35.234c0 6.3086 5.1211 11.43 11.43 11.43s11.43-5.1211 11.43-11.43v-35.234h145.16v35.234c0 6.3086 5.1211 11.43 11.43 11.43s11.43-5.1211 11.43-11.43v-35.234h50.555l28.613 294.73h-349.22zm-48.207 371.45 15.594-53.867h357.22l15.578 53.867z"></path> </g></svg>