<?xml version="1.0" encoding="UTF-8"?>
<svg xmlns="http://www.w3.org/2000/svg" width="100%" height="100%" version="1.1" viewBox="87.5 17.46 525 525">
<path fill="#62BC02" d="m201.23 17.465c-62.719 0-113.73 51.031-113.73 113.75 0 43.266 27.559 87.844 54.312 122.4 26.754 34.555 53.543 59.113 53.543 59.113 3.3438 3.0664 8.4805 3.0664 11.824 0 0 0 26.723-24.559 53.473-59.113 26.754-34.555 54.328-79.133 54.328-122.4 0-62.719-51.031-113.75-113.75-113.75zm0 17.516c53.262 0 96.25 42.973 96.25 96.234 0 35.488-24.891 78.426-50.637 111.68-22.789 29.434-40.605 45.738-45.543 50.379-4.918-4.625-22.793-20.93-45.598-50.379-25.75-33.258-50.707-76.195-50.707-111.68 0-53.262 42.973-96.234 96.234-96.234zm0 35c-33.723 0-61.234 27.508-61.234 61.234 0 33.723 27.508 61.301 61.234 61.301 33.723 0 61.234-27.578 61.234-61.301s-27.508-61.234-61.234-61.234zm0 17.516c24.266 0 43.801 19.449 43.801 43.715 0 24.266-19.535 43.801-43.801 43.801s-43.734-19.535-43.734-43.801c0-24.266 19.469-43.715 43.734-43.715zm140.04 87.516h87.465c5 0 8.7852 3.7188 8.7852 8.7148v227.48c-0.26562 11.93 17.77 11.93 17.5 0v-166.18h104.96c5.9688 0 7.6445 6.1094 9.1758 11.227l25.84 86.305v94.949h-36.008c-11.051-10.809-26.129-17.516-42.742-17.516s-31.691 6.7109-42.742 17.516h-158.95c-11.668 0-11.668 17.5 0 17.5h146.46c-3.8047 7.9648-6 16.844-6 26.234 0 33.723 27.508 61.215 61.234 61.215 30.73 0 56.219-22.859 60.516-52.43h27.004c4.832-0.015625 8.75-3.9492 8.7344-8.7852v-139.98c-0.003906-0.85156-0.13281-1.6953-0.39453-2.5117l-26.996-90.297c-4.4141-14.77-14.363-20.941-25.129-20.941h-104.96v-43.785c0-14.391-11.895-26.234-26.285-26.234l-87.922 0.007812c-12.129 0.60156-11.227 18.121 0.45312 17.516zm139.98 87.449c-4.8125 0.007812-8.7148 3.9023-8.7344 8.7148v52.586c0.015625 4.8125 3.9219 8.707 8.7344 8.7148h22.594l14.988 14.918c1.625 1.6328 3.8281 2.5625 6.1367 2.5781h42.176c5.8516 0.007813 10.066-5.6172 8.4102-11.227l-21.004-70.016c-1.0977-3.7188-4.5117-6.2695-8.3906-6.2734zm-350.15 8.6641c-4.8047 0.097656-8.6445 4.0312-8.5977 8.8359v201.29c-0.015625 4.832 3.8828 8.7656 8.7148 8.7852h44.5c4.2969 29.574 29.801 52.43 60.531 52.43s56.219-22.859 60.516-52.43h131.97c11.668 0 11.668-17.516 0-17.516h-131.95c-4.2656-29.605-29.777-52.516-60.531-52.516-16.613 0-31.707 6.707-42.758 17.516h-53.492v-157.55c0.066406-4.9258-3.9766-8.9219-8.9023-8.8359zm358.94 8.8359h49.594l15.758 52.516h-26.73l-14.988-14.918c-1.625-1.6328-3.8281-2.5625-6.1367-2.5781h-17.5zm-8.7852 87.535c-11.406 0.26562-11.406 17.242 0 17.5h17.5c11.406-0.26562 11.406-17.246 0-17.5zm-245 70.016c24.266 0 43.715 19.469 43.715 43.734s-19.449 43.715-43.715 43.715-43.734-19.449-43.734-43.715 19.469-43.734 43.734-43.734zm280 0c24.266 0 43.734 19.469 43.734 43.734s-19.469 43.715-43.734 43.715-43.734-19.449-43.734-43.715 19.469-43.734 43.734-43.734zm-376.25 17.504h41.016c-2.6016 5.4453-4.4258 11.32-5.3164 17.5h-35.699zm96.25 0c-14.395 0-26.23 11.84-26.234 26.234 0 14.395 11.84 26.285 26.234 26.285s26.215-11.891 26.215-26.285-11.82-26.234-26.215-26.234zm280 0c-14.395 0-26.215 11.84-26.215 26.234s11.82 26.285 26.215 26.285 26.215-11.891 26.215-26.285-11.82-26.234-26.215-26.234zm55.234 0h23.5v17.5h-18.199c-0.89062-6.1797-2.6953-12.055-5.2969-17.5zm-335.23 17.5c4.9375 0 8.7852 3.7969 8.7852 8.7344s-3.8477 8.7852-8.7852 8.7852c-4.9336 0-8.7148-3.8477-8.7148-8.7852s3.7812-8.7344 8.7148-8.7344zm280 0c4.9375 0 8.7148 3.7969 8.7148 8.7344s-3.7812 8.7852-8.7148 8.7852c-4.9375 0-8.7148-3.8477-8.7148-8.7852s3.7812-8.7344 8.7148-8.7344z"></path></svg>