<?xml version="1.0" encoding="UTF-8"?>
<svg xmlns="http://www.w3.org/2000/svg" xmlns:xlink="http://www.w3.org/1999/xlink" version="1.1" viewBox="70 78.4 548.8 425.6" width="100%" height="100%"> <g>  <path fill="#FFF" d="m456.4 470.4h-189v-11.199h183.4v-263.2c0-1.4844-0.58984-2.9102-1.6406-3.9609-1.0508-1.0508-2.4766-1.6406-3.9609-1.6406h-44.801v-11.199h44.801c4.457 0 8.7305 1.7695 11.879 4.9219 3.1523 3.1484 4.9219 7.4219 4.9219 11.879v268.8c0 1.4844-0.58984 2.9102-1.6406 3.9609-1.0508 1.0469-2.4727 1.6367-3.9609 1.6367z"></path>  <path fill="#FFF" d="m197.4 470.4h-43.398c-4.457 0-8.7305-1.7695-11.879-4.918-3.1523-3.1523-4.9219-7.4258-4.9219-11.879v-257.6c0-4.457 1.7695-8.7305 4.9219-11.879 3.1484-3.1523 7.4219-4.9219 11.879-4.9219h44.801v11.199h-44.801c-3.0938 0-5.6016 2.5078-5.6016 5.6016v257.6c0 1.4844 0.58984 2.9062 1.6406 3.957 1.0508 1.0508 2.4766 1.6406 3.9609 1.6406h43.398z"></path>  <path fill="#FFF" d="m456.4 459.2h39.199v11.199h-39.199z"></path>  <path fill="#FFF" d="m613.2 470.4h-50.398v-11.199h44.801v-82.375l-57.402-88.648c-1.0273-1.6016-2.8008-2.5742-4.7031-2.5742h-89.098v-11.203h89.098c5.6992 0 11.016 2.8867 14.113 7.6719l58.293 90.105c0.58203 0.90234 0.89453 1.9531 0.89844 3.0234v89.602c0 1.4844-0.58984 2.9102-1.6406 3.9609-1.0508 1.0469-2.4766 1.6367-3.9609 1.6367z"></path>  <path fill="#FFF" d="m142.8 392h313.6v11.199h-313.6z"></path>  <path fill="#FFF" d="m232.4 504c-10.395 0-20.367-4.1289-27.719-11.48-7.3516-7.3516-11.48-17.324-11.48-27.719 0-10.398 4.1289-20.367 11.48-27.719 7.3516-7.3516 17.324-11.48 27.719-11.48 10.398 0 20.367 4.1289 27.719 11.48 7.3516 7.3516 11.484 17.32 11.484 27.719 0 10.395-4.1328 20.367-11.484 27.719-7.3516 7.3516-17.32 11.48-27.719 11.48zm0-67.199c-7.4258 0-14.547 2.9492-19.797 8.1992-5.25 5.2539-8.2031 12.375-8.2031 19.801s2.9531 14.547 8.2031 19.797c5.25 5.2539 12.371 8.2031 19.797 8.2031 7.4258 0 14.551-2.9492 19.801-8.2031 5.25-5.25 8.1992-12.371 8.1992-19.797s-2.9492-14.547-8.1992-19.801c-5.25-5.25-12.375-8.1992-19.801-8.1992z"></path>  <path fill="#FFF" d="m529.2 504c-10.395 0-20.367-4.1289-27.719-11.48-7.3516-7.3516-11.48-17.324-11.48-27.719 0-10.398 4.1289-20.367 11.48-27.719 7.3516-7.3516 17.324-11.48 27.719-11.48 10.398 0 20.367 4.1289 27.719 11.48 7.3516 7.3516 11.48 17.32 11.48 27.719 0 10.395-4.1289 20.367-11.48 27.719-7.3516 7.3516-17.32 11.48-27.719 11.48zm0-67.199c-7.4258 0-14.547 2.9492-19.797 8.1992-5.2539 5.2539-8.2031 12.375-8.2031 19.801s2.9492 14.547 8.2031 19.797c5.25 5.2539 12.371 8.2031 19.797 8.2031s14.547-2.9492 19.801-8.2031c5.25-5.25 8.1992-12.371 8.1992-19.797s-2.9492-14.547-8.1992-19.801c-5.2539-5.25-12.375-8.1992-19.801-8.1992z"></path>  <path fill="#FFF"  d="m299.6 291.2c-28.219 0-55.285-11.211-75.238-31.164s-31.164-47.016-31.164-75.234 11.211-55.281 31.164-75.238c19.953-19.953 47.02-31.164 75.238-31.164s55.281 11.211 75.234 31.164c19.953 19.957 31.164 47.02 31.164 75.238s-11.211 55.281-31.164 75.234c-19.953 19.953-47.016 31.164-75.234 31.164zm0-201.6v0.003906c-25.25 0-49.465 10.027-67.316 27.883-17.855 17.852-27.887 42.066-27.887 67.316 0 25.246 10.031 49.461 27.887 67.316 17.852 17.852 42.066 27.883 67.316 27.883 25.246 0 49.461-10.031 67.316-27.883 17.852-17.855 27.883-42.07 27.883-67.316 0-25.25-10.031-49.465-27.883-67.316-17.855-17.855-42.07-27.883-67.316-27.883z"></path>  <path fill="#FFF" d="m92.398 330.4h89.602v11.199h-89.602z"></path>  <path fill="#FFF" d="m574 380.8h-78.398c-3.0938 0-5.6016-2.5078-5.6016-5.6016v-56c0-3.0938 2.5078-5.5977 5.6016-5.5977h44.801-0.003906c1.9805 0 3.8086 1.043 4.8164 2.7422l33.602 56c1.0273 1.7305 1.043 3.8789 0.046875 5.6289-0.99219 1.7461-2.8516 2.8281-4.8633 2.8281zm-72.801-11.199h62.891l-26.879-44.801h-36.012z"></path>  <path fill="#FFF" d="m344.4 193.31h-44.797c-3.0938 0-5.6016-2.5078-5.6016-5.6016v-61.602h11.199v56h39.199z"></path>  <path fill="#FFF" d="m70 274.4h112v11.199h-112z"></path>  <path fill="#FFF" d="m92.398 218.4h89.602v11.199h-89.602z"></path> </g></svg>